<svg width="10" height="10" viewBox="0 0 10 10" fill="none" xmlns="http://www.w3.org/2000/svg">
<g clip-path="url(#clip0)">
<path d="M3.74999 9.3749C3.58424 9.37486 3.4253 9.30899 3.30811 9.19177L0.183115 6.06677C0.123421 6.00912 0.075807 5.94015 0.0430513 5.8639C0.0102957 5.78765 -0.0069457 5.70564 -0.00766683 5.62265C-0.00838797 5.53966 0.0074256 5.45736 0.0388512 5.38055C0.0702767 5.30374 0.116685 5.23396 0.175368 5.17528C0.234051 5.11659 0.303833 5.07019 0.380643 5.03876C0.457454 5.00734 0.539753 4.99152 0.62274 4.99224C0.705728 4.99296 0.78774 5.0102 0.863992 5.04296C0.940245 5.07572 1.00921 5.12333 1.06686 5.18302L3.66249 7.77802L8.86124 0.269274C8.90703 0.199672 8.96628 0.139928 9.0355 0.0935546C9.10471 0.0471814 9.1825 0.0151152 9.26429 -0.000758477C9.34608 -0.0166322 9.43022 -0.0159929 9.51176 0.00112169C9.5933 0.0182363 9.67059 0.0514807 9.73909 0.0989003C9.8076 0.14632 9.86593 0.206958 9.91066 0.277248C9.95539 0.347538 9.98561 0.426062 9.99956 0.508202C10.0135 0.590343 10.0109 0.674442 9.99185 0.755554C9.97282 0.836667 9.93776 0.913156 9.88874 0.980524L4.26374 9.10552C4.21193 9.18126 4.14408 9.24465 4.06501 9.2912C3.98595 9.33776 3.8976 9.36633 3.80624 9.3749C3.78749 9.3749 3.76874 9.3749 3.74999 9.3749Z" fill="white"/>
</g>
<defs>
<clipPath id="clip0">
<rect width="10" height="10" fill="white"/>
</clipPath>
</defs>
</svg>
